<?xml version="1.0" standalone="no"?>
<!DOCTYPE svg PUBLIC "-//W3C//DTD SVG 20010904//EN"
 "http://www.w3.org/TR/2001/REC-SVG-20010904/DTD/svg10.dtd">
<svg version="1.0" xmlns="http://www.w3.org/2000/svg"
 width="1024.000000pt" height="1024.000000pt" viewBox="0 0 1024.000000 1024.000000"
 preserveAspectRatio="xMidYMid meet">

<g transform="translate(0.000000,1024.000000) scale(0.100000,-0.100000)"
fill="#000000" stroke="none">
<path d="M3195 7840 c-315 -49 -603 -268 -729 -554 -62 -140 -71 -188 -71
-376 0 -208 10 -252 91 -417 92 -187 229 -326 416 -423 53 -28 141 -62 195
-77 135 -37 333 -39 468 -5 331 85 593 337 692 667 24 80 27 107 27 245 1 132
-2 168 -22 240 -93 344 -359 601 -712 685 -81 19 -275 27 -355 15z"/>
<path d="M4790 6676 l0 -356 -330 0 -330 0 0 -1635 0 -1635 923 0 c856 0 931
1 1052 19 248 37 429 92 640 197 163 81 286 164 408 275 375 343 597 885 597
1454 0 108 -22 336 -40 425 -72 342 -215 652 -420 910 -247 310 -642 552
-1046 640 -233 50 -258 52 -871 57 l-583 5 0 -356z m1724 -378 c3 -13 6 -123
6 -245 l0 -223 215 0 215 0 0 -830 0 -830 -215 0 -215 0 0 -240 0 -240 -865 0
-865 0 0 1315 0 1315 859 0 859 0 6 -22z"/>
</g>
</svg>
